<svg xmlns="http://www.w3.org/2000/svg" width="16" height="16" viewBox="0 0 16 16">
  <path fill="#1A8CFF" fill-rule="evenodd" d="M552.3,2756.7 L552.3,2756.7 L552.3,2756.7 C551.913401,2757.0866 551.913401,2757.7134 552.3,2758.1 L557.2,2763 L546,2763 L546,2763 C545.447715,2763 545,2763.44772 545,2764 L545,2764 L545,2764 C545,2764.55228 545.447715,2765 546,2765 L557.2,2765 L552.3,2769.9 L552.3,2769.9 C551.913401,2770.2866 551.913401,2770.9134 552.3,2771.3 L552.3,2771.3 L552.3,2771.3 C552.686599,2771.6866 553.313401,2771.6866 553.7,2771.3 L560.292893,2764.70711 L560.292893,2764.70711 C560.683418,2764.31658 560.683418,2763.68342 560.292893,2763.29289 L553.7,2756.7 L553.7,2756.7 C553.313401,2756.3134 552.686599,2756.3134 552.3,2756.7 Z" transform="rotate(90 1658.5 1113.5)"/>
</svg>
