<?xml version="1.0" encoding="UTF-8" standalone="no"?>
<svg width="24px" height="28px" viewBox="0 0 24 28" version="1.1" xmlns="http://www.w3.org/2000/svg" xmlns:xlink="http://www.w3.org/1999/xlink">
    <!-- Generator: Sketch 39.1 (31720) - http://www.bohemiancoding.com/sketch -->
    <title>Group 2</title>
    <desc>Created with Sketch.</desc>
    <defs></defs>
    <g stroke="none" stroke-width="1" fill="none" fill-rule="evenodd">
        <g transform="translate(-507.000000, -411.000000)" fill="#FFFFFF">
            <g transform="translate(507.000000, 411.000000)">
                <path d="M19.5,4.50065207 L19.5,3.5 L20.009947,3.5 C22.2135924,3.5 24,5.28429328 24,7.49005301 L24,23.509947 C24,25.7135924 22.2157067,27.5 20.009947,27.5 L3.99005301,27.5 C1.78640758,27.5 0,25.7157067 0,23.509947 L0,7.49005301 C0,5.28640758 1.78429328,3.5 3.99005301,3.5 L4.5,3.5 L4.5,4.50065207 L4.5,3.00878477 C4.5,2.45164833 4.94892021,2 5.50748397,2 L7.5,2 L7.5,0.990777969 C7.5,0.443586406 7.9463114,0 8.49754465,0 L15.5024554,0 C16.053384,0 16.5,0.45097518 16.5,0.990777969 L16.5,2 L17.375,2 L18.25,2 L5.75,2 L7.5,2 L16.5,2 L17.375,2 L18.492516,2 C19.0489341,2 19.5,2.45008808 19.5,3.00878477 L19.5,4.50065207 Z M6.25,3.75463867 L6.25,5.66943359 L17.7824707,5.66943359 L17.7824707,3.75 L14.75,3.75 L14.75,2 L9.25,2 L9.25,3.75 L6.25,3.75463867 Z M20.009947,5.5 C21.1099173,5.5 22,6.38975694 22,7.49005301 L22,23.509947 C22,24.6099173 21.1102431,25.5 20.009947,25.5 L3.99005301,25.5 C2.89008272,25.5 2,24.6102431 2,23.509947 L2,7.49005301 C2,6.39008272 2.88975694,5.5 3.99005301,5.5 L4.5,5.5 C4.5,6.05207109 4.35974121,7.25 5.50748397,7.25 L18.492516,7.25 C19.7318115,7.25 19.5,6.05286864 19.5,5.50130415 L20.009947,5.5 Z M18.375,13.25 C18.9272847,13.25 19.375,12.8022847 19.375,12.25 C19.375,11.6977153 18.9272847,11.25 18.375,11.25 L6.375,11.25 C5.82271525,11.25 5.375,11.6977153 5.375,12.25 C5.375,12.8022847 5.82271525,13.25 6.375,13.25 L18.375,13.25 Z M18.375,17 C18.9272847,17 19.375,16.5522847 19.375,16 C19.375,15.4477153 18.9272847,15 18.375,15 L6.375,15 C5.82271525,15 5.375,15.4477153 5.375,16 C5.375,16.5522847 5.82271525,17 6.375,17 L18.375,17 Z M18.375,20.75 C18.9272847,20.75 19.375,20.3022847 19.375,19.75 C19.375,19.1977153 18.9272847,18.75 18.375,18.75 L6.375,18.75 C5.82271525,18.75 5.375,19.1977153 5.375,19.75 C5.375,20.3022847 5.82271525,20.75 6.375,20.75 L18.375,20.75 Z"></path>
            </g>
        </g>
    </g>
</svg>