<svg xmlns="http://www.w3.org/2000/svg" width="39" height="39" viewBox="0 0 39 39">
  <g fill="none" fill-rule="evenodd" stroke="#40BE65" stroke-linecap="round" stroke-linejoin="round" stroke-width="2.3" transform="translate(2 2)">
    <polygon points="28.636 9.545 19.091 9.545 19.091 1.591 20.682 1.591 20.682 0 27.045 0 27.045 1.591 28.636 1.591"/>
    <polygon points="28.636 4.773 28.636 9.545 19.091 9.545 19.091 4.773 12.727 4.773 12.727 35 35 35 35 4.773"/>
    <polygon points="17.5 28.636 30.227 28.636 30.227 9.545 17.5 9.545"/>
    <path d="M22.2727273 13L25.4545455 13M22.2727273 23L25.4545455 23M22.5806452 17.15L24.9926686 17.15M6.36363636 6.36363636L0 6.36363636 0 1.59090909C0 .712727273.712727273 0 1.59090909 0L4.77272727 0C5.65090909 0 6.36363636.712727273 6.36363636 1.59090909L6.36363636 6.36363636zM6.36363636 27.0454545L3.18181818 35 0 27.0454545.42 26.6254545C1.94568182 25.0997727 4.41795455 25.0997727 5.94363636 26.6254545L6.36363636 27.0454545z"/>
    <path d="M0,6.36363636 L0,27.0454545 L0.42,26.6254545 C1.94568182,25.0997727 4.41795455,25.0997727 5.94363636,26.6254545 L6.36363636,27.0454545 L6.36363636,6.36363636 L0,6.36363636 Z"/>
  </g>
</svg>
