<svg xmlns="http://www.w3.org/2000/svg" width="32" height="39" viewBox="0 0 32 39">
  <g fill="none" fill-rule="evenodd" stroke="#EDC054" stroke-linecap="round" stroke-linejoin="round" stroke-width="2.3" transform="translate(2 2)">
    <path d="M23.3333333 35L4.66666667 35C3.808 35 3.11111111 34.2872727 3.11111111 33.4090909L3.11111111 22.2727273 24.8888889 22.2727273 24.8888889 33.4090909C24.8888889 34.2872727 24.192 35 23.3333333 35zM26.4444444 22.2727273L1.55555556 22.2727273C.696888889 22.2727273 0 21.56 0 20.6818182L0 19.0909091C0 18.2127273.696888889 17.5 1.55555556 17.5L26.4444444 17.5C27.3031111 17.5 28 18.2127273 28 19.0909091L28 20.6818182C28 21.56 27.3031111 22.2727273 26.4444444 22.2727273z"/>
    <polygon points="3.111 17.5 24.889 17.5 24.889 4.773 3.111 4.773"/>
    <path d="M26.4444444 4.77272727L1.55555556 4.77272727C.696888889 4.77272727 0 4.06 0 3.18181818L0 1.59090909C0 .712727273.696888889 0 1.55555556 0L26.4444444 0C27.3031111 0 28 .712727273 28 1.59090909L28 3.18181818C28 4.06 27.3031111 4.77272727 26.4444444 4.77272727zM12.4444444 27L15.5555556 27M12.4444444 9L15.5555556 9"/>
  </g>
</svg>
