<svg xmlns="http://www.w3.org/2000/svg" width="42" height="35" viewBox="0 0 42 35">
  <g fill="none" fill-rule="evenodd" stroke="#1A8CFF" stroke-linecap="round" stroke-linejoin="round" stroke-width="2.3" transform="translate(2 2)">
    <path d="M36.2727273,31 L1.72727273,31 C0.773818182,31 0,30.2284444 0,29.2777778 L0,24.1111111 L13.8181818,24.1111111 L15.5454545,25.8333333 L22.4545455,25.8333333 L24.1818182,24.1111111 L38,24.1111111 L38,29.2777778 C38,30.2284444 37.2261818,31 36.2727273,31 Z"/>
    <path d="M13.8181818 24.1111111L15.5454545 25.8333333 22.4545455 25.8333333 24.1818182 24.1111111 36.2727273 24.1111111 36.2727273 1.72222222C36.2727273.771555556 35.4989091 0 34.5454545 0L3.45454545 0C2.50109091 0 1.72727273.771555556 1.72727273 1.72222222L1.72727273 24.1111111 13.8181818 24.1111111zM6.90909091 18L15.5454545 18M6.90909091 8L8.63636364 8M13.8181818 7.15L29.3636364 7.15M22.4545455 13.15L15.5454545 13.15M10.3636364 13L6.90909091 13M20.7272727 18L22.4545455 18M27.6363636 18.15L29.3636364 18.15"/>
  </g>
</svg>
