<svg xmlns="http://www.w3.org/2000/svg" width="61" height="62" viewBox="0 0 61 62">
  <g fill="none" fill-rule="evenodd" stroke="#40BE65" stroke-linecap="round" stroke-linejoin="round" stroke-width="3" transform="translate(2 2)">
    <path d="M31.2928177,18.2608696 C31.2928177,24.0234783 26.6223646,28.6956522 20.8618785,28.6956522 C15.1013923,28.6956522 10.4309392,24.0234783 10.4309392,18.2608696 C10.4309392,12.4982609 15.1013923,7.82608696 20.8618785,7.82608696 C26.6223646,7.82608696 31.2928177,12.4982609 31.2928177,18.2608696 Z"/>
    <path d="M20.8618785 7.82608696L20.8618785 18.2608696 31.2928177 18.2608696C31.2928177 12.4982609 26.6223646 7.82608696 20.8618785 7.82608696zM46.9392265 10L39.1160221 10M46.9392265 26L36.5082873 26M46.9392265 18L41.7237569 18"/>
    <path d="M57.3701657 36.5217391L0 36.5217391 0 4.67217391C0 2.09217391 2.09140331 0 4.67045304 0L52.6997127 0C55.2787624 0 57.3701657 2.09217391 57.3701657 4.67217391L57.3701657 36.5217391zM52.7010166 46.9565217L4.66914917 46.9565217C2.09009945 46.9565217.0013038674 44.8643478.0013038674 42.2843478L.0013038674 36.5217391 57.3714696 36.5217391 57.3714696 42.2843478C57.3714696 44.8643478 55.2800663 46.9565217 52.7010166 46.9565217z"/>
    <polygon points="39.116 57.391 18.254 57.391 20.862 46.957 36.508 46.957"/>
    <path d="M15.6464088,58 L41.7237569,58"/>
  </g>
</svg>
