<svg xmlns="http://www.w3.org/2000/svg" width="61" height="62" viewBox="0 0 61 62">
  <g fill="none" fill-rule="evenodd" stroke="#1A8CFF" stroke-linecap="round" stroke-linejoin="round" stroke-width="3" transform="translate(2 2)">
    <path d="M13.038674,20 L44.3314917,20"/>
    <polyline points="28.685 28.696 28.685 20.87 28.685 7.826"/>
    <path d="M41 20.8695652L41 28.6956522M15 20.8695652L15 28.6956522M23.4696133 7L33.9005525 7M57.3701657 36.5217391L0 36.5217391 0 4.67217391C0 2.09217391 2.09140331 0 4.67045304 0L52.6997127 0C55.2787624 0 57.3701657 2.09217391 57.3701657 4.67217391L57.3701657 36.5217391zM52.7010166 46.9565217L4.66914917 46.9565217C2.09009945 46.9565217.0013038674 44.8643478.0013038674 42.2843478L.0013038674 36.5217391 57.3714696 36.5217391 57.3714696 42.2843478C57.3714696 44.8643478 55.2800663 46.9565217 52.7010166 46.9565217z"/>
    <polygon points="39.116 57.391 18.254 57.391 20.862 46.957 36.508 46.957"/>
    <path d="M15.6464088,58 L41.7237569,58"/>
  </g>
</svg>
