<svg xmlns="http://www.w3.org/2000/svg" width="61" height="62" viewBox="0 0 61 62">
  <g fill="none" fill-rule="evenodd" stroke="#FF3535" transform="translate(2 2)">
    <g stroke-linecap="round" stroke-linejoin="round" stroke-width="3">
      <path d="M57.3701657 36.5217391L0 36.5217391 0 4.67217391C0 2.09217391 2.09140331 0 4.67045304 0L52.6997127 0C55.2787624 0 57.3701657 2.09217391 57.3701657 4.67217391L57.3701657 36.5217391zM52.7010166 46.9565217L4.66914917 46.9565217C2.09009945 46.9565217.0013038674 44.8643478.0013038674 42.2843478L.0013038674 36.5217391 57.3714696 36.5217391 57.3714696 42.2843478C57.3714696 44.8643478 55.2800663 46.9565217 52.7010166 46.9565217z"/>
      <polygon points="39.116 57.391 18.254 57.391 20.862 46.957 36.508 46.957"/>
      <path d="M15.6464088,58 L41.7237569,58"/>
    </g>
    <g fill="#FF3535" fill-rule="nonzero" stroke-width=".9" transform="translate(17 6)">
      <path d="M23.4 11.4166667L21.7448276 11.4166667C21.4551724 11.4166667 21.2275862 11.6458333 21.2275862 11.9375 21.2275862 12.2291667 21.4551724 12.4583333 21.7448276 12.4583333L23.4 12.4583333C23.6896552 12.4583333 23.9172414 12.2291667 23.9172414 11.9375 23.9172414 11.6458333 23.6896552 11.4166667 23.4 11.4166667zM2.79310345 11.9375C2.79310345 11.6458333 2.56551724 11.4166667 2.27586207 11.4166667L.620689655 11.4166667C.331034483 11.4166667.103448276 11.6458333.103448276 11.9375.103448276 12.2291667.331034483 12.4583333.620689655 12.4583333L2.27586207 12.4583333C2.56551724 12.4583333 2.79310345 12.2291667 2.79310345 11.9375zM19.6137931 4.875C19.737931 4.875 19.8827586 4.83333333 19.9862069 4.72916667L21.3724138 3.35416667C21.5793103 3.14583333 21.5793103 2.8125 21.3724138 2.625 21.1655172 2.4375 20.8344828 2.41666667 20.6482759 2.625L19.262069 4C19.0551724 4.20833333 19.0551724 4.54166667 19.262069 4.72916667 19.3448276 4.83333333 19.4896552 4.875 19.6137931 4.875zM4.0137931 4.72916667C4.11724138 4.83333333 4.24137931 4.875 4.3862069 4.875 4.51034483 4.875 4.65517241 4.83333333 4.75862069 4.72916667 4.96551724 4.52083333 4.96551724 4.1875 4.75862069 4L3.37241379 2.625C3.16551724 2.41666667 2.83448276 2.41666667 2.64827586 2.625 2.46206897 2.83333333 2.44137931 3.16666667 2.64827586 3.35416667L4.0137931 4.72916667zM12 3.5625C12.2896552 3.5625 12.5172414 3.33333333 12.5172414 3.04166667L12.5172414.520833333C12.5172414.229166667 12.2896552 0 12 0 11.7103448 0 11.4827586.229166667 11.4827586.520833333L11.4827586 3.04166667C11.4827586 3.33333333 11.7103448 3.5625 12 3.5625zM22.5517241 21.5416667C22.262069 20.3958333 21.3931034 19.5416667 20.2965517 19.25L18.6413793 8.10416667C18.4551724 6.60416667 17.1517241 5.45833333 15.6206897 5.45833333L8.37931034 5.45833333C6.84827586 5.45833333 5.56551724 6.60416667 5.37931034 8.08333333L3.72413793 19.2291667C2.62758621 19.5208333 1.75862069 20.375 1.46896552 21.5208333L.765517241 24.3333333C.724137931 24.4791667.765517241 24.6458333.868965517 24.7708333.972413793 24.8958333 1.11724138 24.9791667 1.28275862 24.9791667L22.8 24.9791667C22.9655172 24.9791667 23.1103448 24.8958333 23.2137931 24.7708333 23.3172414 24.6458333 23.337931 24.4791667 23.3172414 24.3333333L22.5517241 21.5416667zM6.39310345 8.22916667C6.51724138 7.22916667 7.36551724 6.5 8.37931034 6.5L15.6206897 6.5C16.6344828 6.5 17.4827586 7.25 17.6068966 8.25L19.2413793 19.1458333 12.4137931 19.1458333 12.4137931 15.9166667 16.2206897 17.2916667C16.262069 17.3125 16.3241379 17.3125 16.3655172 17.3125 16.4482759 17.3125 16.5310345 17.2916667 16.5931034 17.2291667 16.6965517 17.1458333 16.7793103 17.0208333 16.7793103 16.8958333L16.7793103 11.7916667C16.7793103 11.6458333 16.7172414 11.5208333 16.5931034 11.4583333 16.4896552 11.375 16.3448276 11.3541667 16.2206897 11.4166667L12.4137931 12.7916667 12.4137931 11.8125C12.4137931 11.5833333 12.2275862 11.3958333 12 11.3958333 11.7724138 11.3958333 11.5862069 11.5833333 11.5862069 11.8125L11.5862069 12.7916667 7.77931034 11.4166667C7.65517241 11.375 7.51034483 11.3958333 7.40689655 11.4583333 7.30344828 11.5416667 7.22068966 11.6666667 7.22068966 11.7916667L7.22068966 16.8958333C7.22068966 17.0416667 7.28275862 17.1666667 7.40689655 17.2291667 7.46896552 17.2708333 7.55172414 17.3125 7.63448276 17.3125 7.67586207 17.3125 7.73793103 17.3125 7.77931034 17.2916667L11.5862069 15.9166667 11.5862069 19.1458333 4.75862069 19.1458333 6.39310345 8.22916667zM12.4137931 13.6666667L15.9517241 12.375 15.9517241 16.2916667 12.4137931 15.0208333 12.4137931 13.6666667zM11.5862069 15.0208333L8.04827586 16.3125 8.04827586 12.3958333 11.5862069 13.6666667 11.5862069 15.0208333zM1.90344828 23.9583333L2.44137931 21.7916667C2.68965517 20.8333333 3.53793103 20.1666667 4.53103448 20.1666667L19.4482759 20.1666667C20.4413793 20.1666667 21.2896552 20.8333333 21.537931 21.7916667L22.0758621 23.9583333 1.90344828 23.9583333z"/>
    </g>
  </g>
</svg>
