<svg xmlns="http://www.w3.org/2000/svg" width="230" height="27" viewBox="0 0 230 27">
  <g fill="none" fill-rule="evenodd">
    <path fill="#FFF" d="M13.125 23.3802679C7.74 23.3802679 3.375 18.9329094 3.375 13.4463057 3.375 7.95970189 7.74 3.5123434 13.125 3.5123434 18.51 3.5123434 22.875 7.95970189 22.875 13.4463057 22.875 18.9329094 18.51 23.3802679 13.125 23.3802679M25.75.646777358L23.541.646777358C23.265.646777358 23.041.875003774 23.041 1.15621132L23.041 4.69117358C20.6345 1.86381509 17.086.0736641509 13.125.0736641509 5.8765.0736641509 0 6.06104151 0 13.4463057 0 20.8315698 5.8765 26.8189472 13.125 26.8189472 17.086 26.8189472 20.6345 25.0287962 23.041 22.2014377L23.041 25.7364C23.041 26.0176075 23.265 26.245834 23.541 26.245834L25.75 26.245834C26.026 26.245834 26.25 26.0176075 26.25 25.7364L26.25 1.15621132C26.25.875003774 26.026.646777358 25.75.646777358M67.45835 23.3802679C62.07335 23.3802679 57.70835 18.9329094 57.70835 13.4463057 57.70835 7.95970189 62.07335 3.5123434 67.45835 3.5123434 72.84335 3.5123434 77.20835 7.95970189 77.20835 13.4463057 77.20835 18.9329094 72.84335 23.3802679 67.45835 23.3802679M80.08335.646777358L77.87435.646777358C77.59835.646777358 77.37435.875003774 77.37435 1.15621132L77.37435 4.69117358C74.96785 1.86381509 71.41935.0736641509 67.45835.0736641509 60.20985.0736641509 54.33335 6.06104151 54.33335 13.4463057 54.33335 20.8315698 60.20985 26.8189472 67.45835 26.8189472 71.41935 26.8189472 74.96785 25.0287962 77.37435 22.2014377L77.37435 25.7364C77.37435 26.0176075 77.59835 26.245834 77.87435 26.245834L80.08335 26.245834C80.35935 26.245834 80.58335 26.0176075 80.58335 25.7364L80.58335 1.15621132C80.58335.875003774 80.35935.646777358 80.08335.646777358M176.125 23.3802679C170.74 23.3802679 166.375 18.9329094 166.375 13.4463057 166.375 7.95970189 170.74 3.5123434 176.125 3.5123434 181.51 3.5123434 185.875 7.95970189 185.875 13.4463057 185.875 18.9329094 181.51 23.3802679 176.125 23.3802679M188.75.646777358L186.541.646777358C186.265.646777358 186.041.875003774 186.041 1.15621132L186.041 4.69117358C183.6345 1.86381509 180.086.0736641509 176.125.0736641509 168.8765.0736641509 163 6.06104151 163 13.4463057 163 20.8315698 168.8765 26.8189472 176.125 26.8189472 180.086 26.8189472 183.6345 25.0287962 186.041 22.2014377L186.041 25.7364C186.041 26.0176075 186.265 26.245834 186.541 26.245834L188.75 26.245834C189.026 26.245834 189.25 26.0176075 189.25 25.7364L189.25 1.15621132C189.25.875003774 189.026.646777358 188.75.646777358M47.408.413864151L40.2915 21.0077321 33.1755.413864151C33.105.210090566 32.916.0735622642 32.7035.0735622642L29.6565.0735622642C29.3115.0735622642 29.07.420996226 29.1845.752128302L38.0745 26.4785434C38.145 26.682317 38.334 26.8188453 38.5465 26.8188453L42.037 26.8188453C42.249 26.8188453 42.438 26.682317 42.5085 26.4785434L51.3985.752128302C51.513.420996226 51.272.0735622642 50.927.0735622642L47.8795.0735622642C47.6675.0735622642 47.4785.210090566 47.408.413864151M131.9793.0736641509L111.6038.0736641509C111.3278.0736641509 111.1038.301890566 111.1038.583098113L111.1038 2.83377736C111.1038 3.11498491 111.3278 3.34321132 111.6038 3.34321132L127.8603 3.34321132C128.0748 3.34321132 128.1898 3.60047547 128.0488 3.76502264L111.2273 23.4057396C111.1478 23.4984566 111.1038 23.6171547 111.1038 23.7404377L111.1038 26.3095132C111.1038 26.5907208 111.3278 26.8189472 111.6038 26.8189472L131.9793 26.8189472C132.2553 26.8189472 132.4793 26.5907208 132.4793 26.3095132L132.4793 24.058834C132.4793 23.7776264 132.2553 23.5494 131.9793 23.5494L115.7233 23.5494C115.5083 23.5494 115.3938 23.2921358 115.5348 23.1275887L132.3558 3.4868717C132.4353 3.39415472 132.4793 3.2754566 132.4793 3.15217358L132.4793.583098113C132.4793.301890566 132.2553.0736641509 131.9793.0736641509M159.14595.0736641509L138.77045.0736641509C138.49445.0736641509 138.27045.301890566 138.27045.583098113L138.27045 2.83377736C138.27045 3.11498491 138.49445 3.34321132 138.77045 3.34321132L155.02695 3.34321132C155.24145 3.34321132 155.35645 3.60047547 155.21545 3.76502264L138.39395 23.4057396C138.31445 23.4984566 138.27045 23.6171547 138.27045 23.7404377L138.27045 26.3095132C138.27045 26.5907208 138.49445 26.8189472 138.77045 26.8189472L159.14595 26.8189472C159.42195 26.8189472 159.64595 26.5907208 159.64595 26.3095132L159.64595 24.058834C159.64595 23.7776264 159.42195 23.5494 159.14595 23.5494L142.88995 23.5494C142.67495 23.5494 142.56045 23.2921358 142.70145 23.1275887L159.52245 3.4868717C159.60195 3.39415472 159.64595 3.2754566 159.64595 3.15217358L159.64595.583098113C159.64595.301890566 159.42195.0736641509 159.14595.0736641509M94.7503.328381132L94.4793.328381132C91.7793.328381132 89.3278 1.44913585 87.5003 3.26373962L87.5003 1.15621132C87.5003.875003774 87.2763.646777358 87.0003.646777358L84.7913.646777358C84.5153.646777358 84.2913.875003774 84.2913 1.15621132L84.2913 25.7364C84.2913 26.0176075 84.5153 26.245834 84.7913 26.245834L87.0003 26.245834C87.2763 26.245834 87.5003 26.0176075 87.5003 25.7364L87.5003 11.1125887 87.5208 11.1125887C87.5208 6.99177736 90.6423 3.63970189 94.4793 3.63970189L94.7503 3.63970189C98.5873 3.63970189 101.7088 6.99177736 101.7088 11.1125887L101.7088 25.7364C101.7088 26.0176075 101.9323 26.245834 102.2088 26.245834L104.4588 26.245834C104.7348 26.245834 104.9588 26.0176075 104.9588 25.7364L104.9588 11.1125887C104.9588 5.16596604 100.3793.328381132 94.7503.328381132"/>
    <path fill="#1A8CFF" d="M215.748,13.2305604 L202.8095,0.0479377358 C202.7625,5.09433962e-05 202.7155,5.09433962e-05 202.6215,5.09433962e-05 L195.705,5.09433962e-05 C195.517,5.09433962e-05 195.3755,0.239484906 195.517,0.431541509 L208.126,13.2784472 C208.22,13.3742208 208.22,13.5183906 208.126,13.6141642 L195.517,26.4610698 C195.3755,26.6047302 195.47,26.8925604 195.705,26.8925604 L202.6215,26.8925604 C202.6685,26.8925604 202.7625,26.8446736 202.8095,26.8446736 L215.748,13.6620509 C215.795,13.5183906 215.795,13.326334 215.748,13.2305604"/>
    <path fill="#1A8CFF" d="M229.5334,13.2305604 L216.5949,0.0479377358 C216.5479,5.09433962e-05 216.5009,5.09433962e-05 216.4069,5.09433962e-05 L209.4904,5.09433962e-05 C209.3024,5.09433962e-05 209.1609,0.239484906 209.3024,0.431541509 L221.9114,13.2784472 C222.0054,13.3742208 222.0054,13.5183906 221.9114,13.6141642 L209.3024,26.4610698 C209.1609,26.6047302 209.2554,26.8925604 209.4904,26.8925604 L216.4069,26.8925604 C216.4539,26.8925604 216.5479,26.8446736 216.5949,26.8446736 L229.5334,13.6620509 C229.6274,13.5183906 229.6274,13.326334 229.5334,13.2305604"/>
  </g>
</svg>
